<!DOCTYPE svg PUBLIC "-//W3C//DTD SVG 1.1//EN" "http://www.w3.org/Graphics/SVG/1.1/DTD/svg11.dtd">
<!-- Uploaded to: SVG Repo, www.svgrepo.com, Transformed by: SVG Repo Mixer Tools -->
<svg version="1.1" id="Layer_1" xmlns="http://www.w3.org/2000/svg" xmlns:xlink="http://www.w3.org/1999/xlink" viewBox="0 0 512 512" xml:space="preserve" width="800px" height="800px" fill="#000000">
<g id="SVGRepo_bgCarrier" stroke-width="0"/>
<g id="SVGRepo_tracerCarrier" stroke-linecap="round" stroke-linejoin="round"/>
<g id="SVGRepo_iconCarrier"> <polygon style="fill:#6396ED;" points="371.13,434.515 362.433,363.711 284.575,342.813 305.473,434.515 "/> <polygon style="fill:#9DC1FF;" points="248.512,363.711 239.816,434.515 305.473,434.515 305.473,342.813 "/> <path style="fill:#6396ED;" d="M492.868,50.24H305.473l-31.347,274.302L512,293.196V69.372C512,58.805,503.434,50.24,492.868,50.24z "/> <path style="fill:#9DC1FF;" d="M305.473,50.24H118.078c-10.566,0-19.132,8.565-19.132,19.132v125.775l29.404,98.048l177.123,31.347 V50.24z"/> <path style="fill:#2E6BD6;" d="M305.473,363.711h56.961h130.435c10.566,0,19.132-8.566,19.132-19.132v-51.384H305.473 l-20.898,35.259L305.473,363.711z"/> <polygon style="fill:#6396ED;" points="305.473,293.195 128.35,293.195 149.498,363.711 248.512,363.711 305.473,363.711 "/> <polygon style="fill:#003DA6;" points="305.473,418.842 284.575,434.515 305.473,450.189 411.225,450.189 411.225,418.842 "/> <rect x="199.722" y="418.847" style="fill:#2E6BD6;" width="105.754" height="31.347"/> <polygon style="fill:#FF0035;" points="74.749,430.742 149.498,409.844 149.498,247.062 74.749,226.164 53.851,328.454 "/> <g> <polygon style="fill:#FF5450;" points="74.749,226.164 0,247.062 0,409.844 74.749,430.742 "/> <path style="fill:#FF5450;" d="M136.808,195.147h-62.06l-20.898,25.958l20.898,25.958h74.749v-39.228 C149.498,200.828,143.817,195.147,136.808,195.147z"/> <path style="fill:#FF5450;" d="M74.749,461.759h62.061c7.008,0,12.688-5.681,12.688-12.689v-39.227H74.749L53.851,435.8 L74.749,461.759z"/> </g> <g> <path style="fill:#FF9491;" d="M74.749,195.147h-62.06C5.681,195.147,0,200.828,0,207.836v39.228h74.749V195.147z"/> <path style="fill:#FF9491;" d="M0,409.844v39.227c0,7.008,5.681,12.689,12.689,12.689h62.06v-51.915H0V409.844z"/> </g> </g>
</svg>