<?xml version="1.0" encoding="UTF-8"?>
<svg xmlns="http://www.w3.org/2000/svg" xmlns:xlink="http://www.w3.org/1999/xlink" width="100px" height="100px" viewBox="0 0 100 100" version="1.1">
<g id="surface1">
<path style="fill-rule:nonzero;fill:rgb(95.294118%,39.607844%,9.411765%);fill-opacity:1;stroke-width:2;stroke-linecap:butt;stroke-linejoin:miter;stroke:rgb(85.882354%,13.725491%,20.392157%);stroke-opacity:1;stroke-miterlimit:4;" d="M 14.999219 1.000898 L 58.000781 1.000898 C 65.731367 1.000898 71.999102 7.268633 71.999102 14.999219 L 71.999102 58.000781 C 71.999102 65.731367 65.731367 71.999102 58.000781 71.999102 L 14.999219 71.999102 C 7.268633 71.999102 1.000898 65.731367 1.000898 58.000781 L 1.000898 14.999219 C 1.000898 7.268633 7.268633 1.000898 14.999219 1.000898 Z M 14.999219 1.000898 " transform="matrix(1.369863,0,0,1.369863,0,0)"/>
<path style=" stroke:none;fill-rule:nonzero;fill:rgb(90.196079%,29.803923%,9.019608%);fill-opacity:1;" d="M 21.917969 2.738281 L 39.910156 2.738281 L 58.347656 97.261719 L 21.917969 97.261719 C 11.324219 97.261719 2.738281 88.675781 2.738281 78.082031 L 2.738281 21.917969 C 2.738281 11.324219 11.324219 2.738281 21.917969 2.738281 "/>
<path style=" stroke:none;fill-rule:evenodd;fill:rgb(100%,100%,100%);fill-opacity:1;" d="M 20.546875 52.125 L 20.546875 48.457031 L 38.21875 39.234375 L 38.21875 43.25 L 24.007812 50.316406 L 38.21875 57.308594 L 38.21875 61.351562 Z M 54.554688 31.507812 L 57.734375 31.507812 L 44.589844 68.65625 L 41.398438 68.65625 Z M 61.78125 57.308594 L 75.992188 50.3125 L 61.78125 43.25 L 61.78125 39.234375 L 79.453125 48.457031 L 79.453125 52.125 L 61.78125 61.347656 Z M 61.78125 57.308594 "/>
</g>
</svg>
